<svg width="30" height="30" viewBox="0 0 30 30" fill="none" xmlns="http://www.w3.org/2000/svg">
<path d="M22.0822 11.448C21.9586 11.4481 21.8366 11.4205 21.725 11.3674C21.6135 11.3142 21.5152 11.2368 21.4374 11.1408L14.9554 3.12931L8.47238 11.1403C8.33066 11.2992 8.1332 11.3976 7.92094 11.4149C7.70868 11.4322 7.4979 11.3672 7.33228 11.2333C7.16666 11.0994 7.05892 10.907 7.03138 10.6958C7.00384 10.4846 7.05862 10.2709 7.18436 10.099L14.3111 1.29214C14.3913 1.20016 14.4903 1.12642 14.6014 1.0759C14.7125 1.02538 14.8331 0.999237 14.9551 0.999237C15.0772 0.999237 15.1978 1.02538 15.3089 1.0759C15.42 1.12642 15.5189 1.20016 15.5991 1.29214L22.7259 10.099C22.8239 10.2207 22.8855 10.3676 22.9036 10.5228C22.9217 10.6779 22.8956 10.835 22.8283 10.976C22.7611 11.117 22.6553 11.2361 22.5233 11.3196C22.3913 11.4031 22.2384 11.4476 22.0822 11.448Z" fill="#8E8E8F"/>
<path d="M13.3698 28.104C13.1943 28.1037 13.0235 28.0475 12.8821 27.9435L9.57794 25.5182C9.40168 25.3889 9.28398 25.1948 9.2507 24.9788L7.0102 10.7477C6.9876 10.6013 7.00461 10.4516 7.05944 10.3141C7.11428 10.1766 7.20494 10.0562 7.32202 9.96558C7.43909 9.87493 7.5783 9.8173 7.72518 9.79865C7.87207 9.78001 8.02126 9.80104 8.15727 9.85956C9.92161 10.6813 11.5738 11.725 13.0738 12.9652C13.1616 13.0376 13.2336 13.1272 13.2853 13.2286C13.337 13.3299 13.3672 13.4408 13.3742 13.5544L14.1974 27.2251C14.2041 27.338 14.1876 27.4511 14.1489 27.5574C14.1102 27.6637 14.0502 27.7609 13.9726 27.8432C13.8949 27.9254 13.8012 27.9909 13.6973 28.0356C13.5934 28.0802 13.4815 28.1032 13.3684 28.103M10.8323 24.3833L12.4359 25.5626L11.7424 14.0192C10.8461 13.3089 9.89646 12.6686 8.90199 12.104L10.8323 24.3833Z" fill="#8E8E8F"/>
<path d="M16.6296 28.1045C16.5165 28.1047 16.4045 28.0817 16.3006 28.037C16.1967 27.9923 16.1031 27.9269 16.0254 27.8446C15.9477 27.7624 15.8877 27.6652 15.8491 27.5589C15.8104 27.4526 15.7939 27.3395 15.8005 27.2266L16.6237 13.5559C16.6308 13.442 16.6613 13.3308 16.7134 13.2292C16.7654 13.1277 16.8378 13.038 16.9261 12.9657C18.4265 11.7258 20.0786 10.6819 21.8426 9.85908C21.9787 9.80049 22.128 9.77944 22.275 9.79812C22.422 9.8168 22.5613 9.87453 22.6784 9.9653C22.7955 10.0561 22.8862 10.1766 22.9409 10.3142C22.9956 10.4519 23.0125 10.6018 22.9897 10.7482L20.7492 24.9793C20.7155 25.1944 20.5978 25.3873 20.422 25.5157L17.1173 27.944C16.9762 28.0485 16.8052 28.1047 16.6296 28.1045ZM18.2571 14.0206L17.5626 25.564L19.1656 24.3857L21.0994 12.1045C20.1043 12.6698 19.1544 13.3104 18.2571 14.0206Z" fill="#8E8E8F"/>
<path d="M16.63 28.1054H13.3707C13.159 28.1058 12.9552 28.0252 12.801 27.8801C12.6469 27.735 12.5541 27.5364 12.5416 27.3251L11.7208 13.6558C11.7135 13.538 11.7315 13.4199 11.7736 13.3096C11.8156 13.1992 11.8808 13.0991 11.9647 13.016C12.8859 12.1059 15.3254 10.9189 17.958 12.9496C18.0649 13.0324 18.1499 13.14 18.2056 13.263C18.2614 13.3861 18.2862 13.521 18.2779 13.6558L17.4562 27.3271C17.4437 27.5379 17.3513 27.736 17.1978 27.881C17.0443 28.026 16.8412 28.107 16.63 28.1074M14.1505 26.4492H15.8507L16.5993 14.0167C16.1358 13.6782 15.5782 13.4928 15.0043 13.4862C14.4303 13.4797 13.8687 13.6523 13.3975 13.9802L14.1505 26.4492Z" fill="#8E8E8F"/>
<path d="M14.8628 1.59302L12.6194 4.3656C12.8657 4.74033 13.1976 5.05114 13.5876 5.27237C13.9777 5.4936 14.4148 5.61893 14.8628 5.63801C15.3117 5.62294 15.7503 5.49932 16.141 5.27772C16.5317 5.05612 16.8629 4.74315 17.1062 4.3656L14.8628 1.59302Z" fill="#8E8E8F"/>
</svg>
