<svg id="그룹_1415" data-name="그룹 1415" xmlns="http://www.w3.org/2000/svg" xmlns:xlink="http://www.w3.org/1999/xlink" width="44.169" height="48.896" viewBox="0 0 44.169 48.896">
  <defs>
    <clipPath id="clip-path">
      <rect id="사각형_1068" data-name="사각형 1068" width="44.169" height="48.896" fill="#8e8e8f"/>
    </clipPath>
  </defs>
  <g id="그룹_1414" data-name="그룹 1414" transform="translate(0 0)" clip-path="url(#clip-path)">
    <path id="패스_9379" data-name="패스 9379" d="M40.783,15.325,37.428,6.959a1.4,1.4,0,0,0-1.3-.885H5.821a1.4,1.4,0,0,0-1.3.885L1.151,15.377c0-.021.015,0-.006.06a1.465,1.465,0,0,0-.085.6,1.553,1.553,0,0,0,.222.611l.029.054a.3.3,0,0,1,.033.06l18.278,24.5a1.431,1.431,0,0,0,.671.692l.141.083a.4.4,0,0,0,.079.039c.012,0,.114,0,.189.008a1.668,1.668,0,0,0,.206.025l.067.01.037,0a1.055,1.055,0,0,0,.1-.019,2.386,2.386,0,0,1,.249-.021A1.055,1.055,0,0,1,21.491,42,1.558,1.558,0,0,0,21.7,41.9a1.355,1.355,0,0,0,.281-.239.772.772,0,0,1,.108-.089L40.616,16.736c.015-.021.025-.037.037-.052h0a1.626,1.626,0,0,0,.224-.607,1.311,1.311,0,0,0-.075-.634ZM32.668,8.88l-4.29,4.288L24.086,8.88Zm-11.548,1,4.614,4.616H16.141l4.795-4.8Zm-3.332-1L13.5,13.168,9.207,8.88ZM6.334,9.971l4.521,4.523H4.526ZM5.252,17.3h7.412l4.778,16.349ZM20.938,35.611,15.586,17.3H26.292ZM24.392,33.8l4.82-16.5h7.482ZM31.02,14.494l4.573-4.575,1.827,4.575Z" transform="translate(1.138 6.551)" fill="#8e8e8f"/>
    <path id="패스_9380" data-name="패스 9380" d="M10.751,23.525Z" transform="translate(11.594 25.371)" fill="#8e8e8f"/>
    <path id="패스_9381" data-name="패스 9381" d="M20.34,10.892Z" transform="translate(21.936 11.747)" fill="#8e8e8f"/>
    <path id="패스_9382" data-name="패스 9382" d="M6.3.919a1.4,1.4,0,0,0,.044,1.075L9.147,8.042a1.4,1.4,0,1,0,2.546-1.183L8.887.811A1.4,1.4,0,0,0,6.3.919" transform="translate(6.697 0.001)" fill="#8e8e8f"/>
    <path id="패스_9383" data-name="패스 9383" d="M.336,3.122,4.825,8.391a1.4,1.4,0,0,0,2.465-.8,1.385,1.385,0,0,0-.33-1.023L2.469,1.3A1.388,1.388,0,0,0,1.51.815c-.033,0-.075,0-.11,0A1.4,1.4,0,0,0,.336,3.122" transform="translate(0.001 0.875)" fill="#8e8e8f"/>
    <path id="패스_9384" data-name="패스 9384" d="M12.471,6.86a1.4,1.4,0,0,0,.682,1.862,1.413,1.413,0,0,0,1.864-.682l2.8-6.048A1.391,1.391,0,0,0,17.867.92a1.4,1.4,0,0,0-2.59-.108Z" transform="translate(13.308 0.002)" fill="#8e8e8f"/>
    <path id="패스_9385" data-name="패스 9385" d="M18.076,6.569a1.407,1.407,0,0,0,.158,1.981,1.407,1.407,0,0,0,1.977-.158L24.7,3.123a1.4,1.4,0,0,0-.16-1.975v0A1.39,1.39,0,0,0,23.636.81c-.037,0-.075,0-.112,0a1.4,1.4,0,0,0-.958.491Z" transform="translate(19.132 0.874)" fill="#8e8e8f"/>
  </g>
</svg>
