<svg width="30" height="30" viewBox="0 0 30 30" fill="none" xmlns="http://www.w3.org/2000/svg">
<g clip-path="url(#clip0_15_27)">
<path d="M22.3338 7.72588C21.5155 6.13877 20.237 4.80961 18.6508 3.89713C17.0646 2.98465 15.2378 2.52742 13.3886 2.58004C11.5395 2.63266 9.74604 3.1929 8.22253 4.19387C6.69903 5.19484 5.50983 6.59422 4.79697 8.2249C4.0841 9.85559 3.87769 11.6486 4.20238 13.3899C4.52708 15.1312 5.36916 16.7472 6.62806 18.0448C7.88696 19.3424 9.50947 20.2669 11.3018 20.7078C13.0942 21.1486 14.9807 21.0873 16.7359 20.5311C16.7024 20.8133 16.7546 21.099 16.8862 21.354L20.018 27.4108C20.2029 27.7683 20.5287 28.0412 20.9237 28.1694C21.3187 28.2977 21.7505 28.2708 22.1243 28.0947C22.498 27.9185 22.7831 27.6076 22.9166 27.2303C23.0502 26.8529 23.0214 26.4401 22.8365 26.0826L19.7047 20.0257C19.5727 19.771 19.3669 19.5577 19.1118 19.4114C21.0323 18.1636 22.4158 16.2943 23.0078 14.1473C23.5997 12.0003 23.3604 9.72005 22.3338 7.72588ZM17.2276 18.6283C15.8155 19.2933 14.2282 19.543 12.6663 19.3457C11.1044 19.1484 9.6381 18.5131 8.45271 17.5199C7.26731 16.5267 6.41607 15.2204 6.00663 13.766C5.59718 12.3117 5.6479 10.7746 6.15238 9.34916C6.65686 7.9237 7.59245 6.67386 8.84086 5.75765C10.0893 4.84144 11.5944 4.30001 13.1661 4.2018C14.7377 4.1036 16.3053 4.45303 17.6705 5.20591C19.0358 5.9588 20.1374 7.08134 20.8362 8.43161C21.7719 10.2434 21.9175 12.335 21.2408 14.247C20.5642 16.1589 19.1207 17.7347 17.2276 18.6283Z" fill="#8E8E8F"/>
<path d="M10.6451 5.99947C9.43564 6.58499 8.42589 7.4999 7.74358 8.6285C7.06127 9.7571 6.73705 11.0487 6.81192 12.3399C6.88679 13.6312 7.35739 14.8641 8.1642 15.8827C8.97101 16.9014 10.0778 17.66 11.3446 18.0626C12.6114 18.4653 13.9813 18.4939 15.281 18.1449C16.5808 17.7958 17.752 17.0848 18.6466 16.1017C19.5412 15.1186 20.119 13.9076 20.3069 12.6219C20.4948 11.3361 20.2843 10.0334 19.7021 8.87833C18.9202 7.33103 17.5274 6.15894 15.8295 5.61924C14.1316 5.07953 12.2671 5.21627 10.6451 5.99947ZM15.8206 16.2718C14.9026 16.7163 13.8743 16.8908 12.8656 16.7734C11.857 16.6559 10.9132 16.2517 10.1538 15.6119C9.39434 14.9721 8.85329 14.1254 8.59906 13.1788C8.34483 12.2323 8.38884 11.2285 8.72551 10.2943C9.06219 9.36011 9.67641 8.53752 10.4905 7.93055C11.3046 7.32358 12.282 6.95949 13.2992 6.88431C14.3163 6.80914 15.3274 7.02627 16.2047 7.50823C17.0821 7.9902 17.7861 8.71536 18.2279 9.59201C18.8187 10.7678 18.8971 12.1315 18.4458 13.3837C17.9944 14.636 17.0503 15.6746 15.8206 16.2718Z" fill="#8E8E8F"/>
</g>
<defs>
<clipPath id="clip0_15_27">
<rect width="30" height="30" fill="white"/>
</clipPath>
</defs>
</svg>
