<svg id="그룹_1409" data-name="그룹 1409" xmlns="http://www.w3.org/2000/svg" xmlns:xlink="http://www.w3.org/1999/xlink" width="41.548" height="50.084" viewBox="0 0 41.548 50.084">
  <defs>
    <clipPath id="clip-path">
      <rect id="사각형_1065" data-name="사각형 1065" width="41.548" height="50.084" fill="none"/>
    </clipPath>
  </defs>
  <g id="그룹_1408" data-name="그룹 1408" transform="translate(0 0)" clip-path="url(#clip-path)">
    <path id="패스_9358" data-name="패스 9358" d="M4.575,15.785a1.507,1.507,0,0,0-.725.99L.034,34.566a1.5,1.5,0,0,0,2.217,1.618l11.626-6.664a1.5,1.5,0,1,0-1.494-2.608l-8.7,4.99c.834-3.88,2.3-10.7,2.758-12.855L10.482,20.4a1.5,1.5,0,0,0,.949-2.852L5.794,15.665a1.506,1.506,0,0,0-1.219.12" transform="translate(0 13.699)" fill="#8e8e8f"/>
    <path id="패스_9359" data-name="패스 9359" d="M23.165,15.665l-5.636,1.879a1.5,1.5,0,1,0,.951,2.852l4.043-1.349c.462,2.153,1.926,8.975,2.758,12.855l-8.7-4.99a1.5,1.5,0,1,0-1.494,2.608L26.71,36.184a1.5,1.5,0,0,0,2.215-1.618L25.109,16.776a1.5,1.5,0,0,0-1.945-1.11" transform="translate(12.589 13.699)" fill="#8e8e8f"/>
    <path id="패스_9360" data-name="패스 9360" d="M7.01,7.112a1.5,1.5,0,0,0,0,3.006H24.859a1.5,1.5,0,1,0,0-3.006Z" transform="translate(4.84 6.25)" fill="#8e8e8f"/>
    <path id="패스_9361" data-name="패스 9361" d="M17.124,14.345a4.133,4.133,0,1,1-4.133-4.133,4.133,4.133,0,0,1,4.133,4.133" transform="translate(7.784 8.974)" fill="#8e8e8f"/>
    <path id="패스_9362" data-name="패스 9362" d="M4.889,22.044a106.242,106.242,0,0,0,2.476,20.19,1.5,1.5,0,0,0,1.467,1.184H24.121a1.5,1.5,0,0,0,1.471-1.184,106.347,106.347,0,0,0,2.471-20.19C28.062,9.683,22.973,0,16.476,0S4.889,9.683,4.889,22.044m3.008,0c0-11.389,4.436-19.038,8.579-19.038s8.584,7.649,8.584,19.038a101.4,101.4,0,0,1-2.181,18.369h-12.8A101.534,101.534,0,0,1,7.9,22.044" transform="translate(4.297 0)" fill="#8e8e8f"/>
    <path id="패스_9363" data-name="패스 9363" d="M10.38,17.872V34.154a1.5,1.5,0,1,0,3.006,0V17.872a1.5,1.5,0,1,0-3.006,0" transform="translate(9.122 14.385)" fill="#8e8e8f"/>
  </g>
</svg>
