<svg xmlns="http://www.w3.org/2000/svg" xmlns:xlink="http://www.w3.org/1999/xlink" width="32.807" height="55.576" viewBox="0 0 32.807 55.576">
  <defs>
    <clipPath id="clip-path">
      <rect id="사각형_1066" data-name="사각형 1066" width="32.807" height="55.576" fill="none"/>
    </clipPath>
  </defs>
  <g id="그룹_1411" data-name="그룹 1411" transform="translate(0)">
    <g id="그룹_1410" data-name="그룹 1410" transform="translate(0 0)" clip-path="url(#clip-path)">
      <path id="패스_9364" data-name="패스 9364" d="M30.925,21.424a1.7,1.7,0,0,1-1.322-.63L16.312,4.367,3.019,20.793A1.7,1.7,0,0,1,.378,18.658L14.991.6a1.752,1.752,0,0,1,2.641,0L32.245,18.658a1.7,1.7,0,0,1-1.32,2.766" transform="translate(0 -0.001)" fill="#8e8e8f"/>
      <path id="패스_9365" data-name="패스 9365" d="M13.061,46.041a1.692,1.692,0,0,1-1-.329L5.286,40.739a1.691,1.691,0,0,1-.671-1.106L.021,10.453A1.7,1.7,0,0,1,2.373,8.632,46.883,46.883,0,0,1,12.454,15a1.7,1.7,0,0,1,.616,1.208l1.688,28.031a1.7,1.7,0,0,1-1.7,1.8m-5.2-7.627,3.288,2.418L9.724,17.161A45.748,45.748,0,0,0,3.9,13.234Z" transform="translate(0 9.534)" fill="#8e8e8f"/>
      <path id="패스_9366" data-name="패스 9366" d="M10.2,46.041a1.7,1.7,0,0,1-1.7-1.8l1.688-28.031A1.7,1.7,0,0,1,10.808,15a47.04,47.04,0,0,1,10.081-6.37,1.7,1.7,0,0,1,2.352,1.823l-4.594,29.18a1.686,1.686,0,0,1-.671,1.1L11.2,45.712a1.677,1.677,0,0,1-1,.329m3.337-28.878L12.113,40.832,15.4,38.416l3.965-25.182a46.021,46.021,0,0,0-5.829,3.929" transform="translate(9.545 9.535)" fill="#8e8e8f"/>
      <path id="패스_9367" data-name="패스 9367" d="M14.628,43.828H7.945a1.7,1.7,0,0,1-1.7-1.6L4.562,14.2a1.7,1.7,0,0,1,.5-1.312c1.889-1.866,6.891-4.3,12.289-.136a1.7,1.7,0,0,1,.656,1.448L16.322,42.232a1.7,1.7,0,0,1-1.694,1.6m-5.084-3.4h3.486l1.535-25.492A5.655,5.655,0,0,0,8,14.865Z" transform="translate(5.118 11.75)" fill="#8e8e8f"/>
      <path id="패스_9368" data-name="패스 9368" d="M10.029.573l-4.6,5.685a5.8,5.8,0,0,0,4.6,2.609,5.7,5.7,0,0,0,4.6-2.609Z" transform="translate(6.093 0.643)" fill="#8e8e8f"/>
    </g>
  </g>
</svg>
