<svg width="30" height="30" viewBox="0 0 30 30" fill="none" xmlns="http://www.w3.org/2000/svg">
<path d="M6.53285 17.8944C6.43125 17.951 6.34302 18.0277 6.27387 18.1197C6.20473 18.2116 6.15622 18.3167 6.13151 18.4281L4.01909 28.019C3.98477 28.1721 3.99691 28.3317 4.05403 28.4783C4.11116 28.6249 4.21081 28.7521 4.34085 28.8446C4.47089 28.937 4.62572 28.9906 4.78648 28.9989C4.94725 29.0072 5.10702 28.9698 5.24635 28.8912L11.6821 25.2987C11.7769 25.2459 11.8601 25.1753 11.9269 25.0911C11.9937 25.0069 12.0428 24.9108 12.0714 24.8081C12.1001 24.7054 12.1077 24.5983 12.0938 24.4928C12.0799 24.3872 12.0448 24.2854 11.9905 24.1931C11.9362 24.1008 11.8637 24.0198 11.7773 23.9547C11.6908 23.8897 11.5921 23.8418 11.4866 23.814C11.2737 23.7576 11.0465 23.786 10.8551 23.8928L6.03906 26.5828C6.50074 24.4912 7.31227 20.8146 7.5658 19.6529L9.80277 20.3823C9.90643 20.4159 10.0159 20.4293 10.1248 20.4217C10.2338 20.4141 10.3402 20.3856 10.4379 20.338C10.5356 20.2904 10.6227 20.2245 10.6942 20.1441C10.7658 20.0636 10.8203 19.9703 10.8548 19.8693C10.8893 19.7684 10.9031 19.6618 10.8953 19.5557C10.8875 19.4496 10.8583 19.346 10.8094 19.2508C10.7604 19.1557 10.6928 19.0709 10.6102 19.0012C10.5276 18.9316 10.4318 18.8784 10.3281 18.8448L7.20764 17.8297C7.09679 17.7939 6.97943 17.7811 6.86319 17.7922C6.74694 17.8034 6.63439 17.8382 6.53285 17.8944Z" fill="#8E8E8F"/>
<path d="M23.7927 17.8297L20.6728 18.8426C20.5691 18.8763 20.4733 18.9295 20.3907 18.9992C20.3082 19.069 20.2406 19.1539 20.1917 19.249C20.1428 19.3442 20.1137 19.4479 20.106 19.554C20.0982 19.6602 20.1121 19.7668 20.1466 19.8677C20.1812 19.9687 20.2358 20.062 20.3074 20.1424C20.379 20.2228 20.4662 20.2886 20.564 20.3362C20.6617 20.3838 20.7681 20.4122 20.8771 20.4197C20.9861 20.4272 21.0956 20.4138 21.1992 20.3801L23.4373 19.6529C23.6931 20.8135 24.5035 24.4912 24.964 26.5828L20.148 23.8928C20.0532 23.8399 19.9486 23.8057 19.8403 23.7922C19.7319 23.7787 19.6219 23.786 19.5165 23.8139C19.411 23.8418 19.3123 23.8896 19.2258 23.9547C19.1394 24.0197 19.0669 24.1007 19.0126 24.1931C18.9583 24.2854 18.9232 24.3872 18.9093 24.4927C18.8954 24.5983 18.903 24.7054 18.9317 24.8081C18.9603 24.9107 19.0094 25.0069 19.0762 25.0911C19.143 25.1753 19.2262 25.2458 19.321 25.2987L25.7551 28.8912C25.8944 28.9694 26.054 29.0065 26.2146 28.9981C26.3752 28.9897 26.5298 28.936 26.6596 28.8436C26.7895 28.7512 26.889 28.6241 26.9461 28.4778C27.0032 28.3314 27.0154 28.172 26.9812 28.0189L24.8688 18.4286C24.8445 18.3171 24.7962 18.2119 24.7272 18.1198C24.6581 18.0277 24.5699 17.9509 24.4682 17.8944C24.3665 17.8379 24.2537 17.803 24.1372 17.7919C24.0207 17.7809 23.9031 17.7939 23.7921 17.8302" fill="#8E8E8F"/>
<path d="M10.5598 9.20325C10.3391 9.20325 10.1275 9.28861 9.97147 9.44056C9.81544 9.59251 9.72778 9.7986 9.72778 10.0135C9.72778 10.2284 9.81544 10.4345 9.97147 10.5864C10.1275 10.7384 10.3391 10.8237 10.5598 10.8237H20.4404C20.6611 10.8237 20.8727 10.7384 21.0287 10.5864C21.1848 10.4345 21.2724 10.2284 21.2724 10.0135C21.2724 9.7986 21.1848 9.59251 21.0287 9.44056C20.8727 9.28861 20.6611 9.20325 20.4404 9.20325H10.5598Z" fill="#8E8E8F"/>
<path d="M17.7887 14.5709C17.7887 15.0116 17.6545 15.4423 17.4031 15.8087C17.1517 16.1751 16.7944 16.4607 16.3763 16.6293C15.9583 16.798 15.4982 16.8421 15.0544 16.7561C14.6106 16.6702 14.203 16.458 13.883 16.1464C13.563 15.8348 13.3451 15.4378 13.2569 15.0056C13.1686 14.5734 13.2139 14.1254 13.387 13.7183C13.5602 13.3111 13.8535 12.9632 14.2297 12.7184C14.6059 12.4735 15.0483 12.3429 15.5008 12.3429C16.1076 12.3429 16.6895 12.5776 17.1186 12.9954C17.5476 13.4133 17.7887 13.98 17.7887 14.5709Z" fill="#8E8E8F"/>
<path d="M9.08545 13.8836C9.18381 17.546 9.64279 21.1907 10.4561 24.7677C10.4961 24.9485 10.5985 25.1105 10.7463 25.2266C10.8941 25.3428 11.0783 25.4061 11.2682 25.406H19.7317C19.9219 25.4066 20.1067 25.3435 20.2549 25.2273C20.4031 25.1111 20.5059 24.9489 20.546 24.7677C21.358 21.1906 21.816 17.5459 21.9138 13.8836C21.9133 7.21996 19.0962 2 15.4996 2C11.9031 2 9.08545 7.21996 9.08545 13.8836ZM10.7506 13.8836C10.7506 7.74395 13.2062 3.62049 15.4996 3.62049C17.7931 3.62049 20.2515 7.74395 20.2515 13.8836C20.1597 17.2133 19.7555 20.528 19.0441 23.7861H11.9585C11.2478 20.5279 10.8441 17.2133 10.7522 13.8836" fill="#8E8E8F"/>
<path d="M14.7959 19.3893V28.1666C14.7959 28.3815 14.8836 28.5876 15.0396 28.7396C15.1956 28.8915 15.4072 28.9769 15.6279 28.9769C15.8486 28.9769 16.0602 28.8915 16.2162 28.7396C16.3723 28.5876 16.4599 28.3815 16.4599 28.1666V19.3893C16.4599 19.1744 16.3723 18.9683 16.2162 18.8163C16.0602 18.6644 15.8486 18.579 15.6279 18.579C15.4072 18.579 15.1956 18.6644 15.0396 18.8163C14.8836 18.9683 14.7959 19.1744 14.7959 19.3893Z" fill="#8E8E8F"/>
</svg>
