<svg width="30" height="30" viewBox="0 0 30 30" fill="none" xmlns="http://www.w3.org/2000/svg">
<path d="M26.6756 13.6902L24.7006 9.22222C24.6399 9.08297 24.5345 8.96347 24.3981 8.8792C24.2616 8.79493 24.1004 8.74977 23.9354 8.74957H6.09444C5.92938 8.74977 5.76818 8.79493 5.63174 8.8792C5.49529 8.96347 5.38988 9.08297 5.32916 9.22222L3.34533 13.718C3.34533 13.7068 3.35416 13.718 3.3418 13.75C3.30069 13.8525 3.28364 13.9617 3.29176 14.0705C3.30946 14.1864 3.354 14.2976 3.42245 14.3968L3.43952 14.4256C3.44732 14.4356 3.45384 14.4464 3.45895 14.4577L14.2187 27.5423C14.2993 27.7032 14.4389 27.8339 14.6137 27.9119L14.6967 27.9562C14.7113 27.9647 14.7269 27.9717 14.7432 27.9771C14.7503 27.9771 14.8103 27.9771 14.8545 27.9813C14.8946 27.9881 14.9351 27.9925 14.9758 27.9947L15.0152 28H15.037C15.0568 27.9975 15.0764 27.9941 15.0958 27.9899C15.1445 27.9838 15.1934 27.9801 15.2424 27.9787C15.2668 27.9629 15.2924 27.9488 15.319 27.9365C15.3614 27.9215 15.4025 27.9036 15.442 27.8831C15.5033 27.8475 15.5589 27.8046 15.6074 27.7554C15.627 27.7379 15.6482 27.7219 15.671 27.7079L26.5773 14.4438C26.5862 14.4326 26.5921 14.424 26.5991 14.416C26.6666 14.3171 26.7114 14.2068 26.731 14.0918C26.7472 13.9774 26.7321 13.8611 26.6868 13.7532L26.6756 13.6902ZM21.8986 10.2482L19.3732 12.5382L16.8466 10.2482H21.8986ZM15.1006 10.7822L17.8167 13.2475H12.1696L14.9922 10.684L15.1006 10.7822ZM13.1391 10.2482L10.6149 12.5382L8.08769 10.2482H13.1391ZM6.39643 10.8308L9.05782 13.2464H5.33211L6.39643 10.8308ZM5.75948 14.745H10.1227L12.9354 23.4765L5.75948 14.745ZM14.9934 24.5243L11.8428 14.745H18.1452L14.9934 24.5243ZM17.0267 23.5571L19.8641 14.745H24.2686L17.0267 23.5571ZM20.9284 13.2464L23.6204 10.8031L24.6959 13.2464H20.9284Z" fill="#8E8E8F"/>
<path d="M9.64886 2.49574C9.61123 2.58826 9.59414 2.68661 9.59859 2.78515C9.60304 2.88368 9.62892 2.98044 9.67476 3.06986L11.3248 6.2999C11.4172 6.48021 11.5847 6.61985 11.7905 6.68811C11.9964 6.75637 12.2236 6.74765 12.4224 6.66386C12.6211 6.58008 12.7751 6.4281 12.8503 6.24136C12.9255 6.05462 12.9159 5.84841 12.8236 5.6681L11.1718 2.43806C11.1034 2.30352 10.9924 2.19045 10.8531 2.1132C10.7137 2.03595 10.5522 1.99801 10.389 2.00419C10.2258 2.01037 10.0684 2.06039 9.93659 2.14791C9.80481 2.23543 9.70466 2.35649 9.64886 2.49574Z" fill="#8E8E8F"/>
<path d="M2.19634 4.14164L4.8389 6.95564C4.94457 7.06897 5.08503 7.1512 5.2424 7.19186C5.39976 7.23252 5.5669 7.22976 5.72253 7.18394C5.87816 7.13811 6.01523 7.0513 6.11629 6.93455C6.21734 6.81781 6.27781 6.67641 6.28998 6.52838C6.29937 6.43017 6.28702 6.33124 6.25365 6.23741C6.22029 6.14359 6.1666 6.05676 6.09572 5.98203L3.45198 3.16857C3.38159 3.09352 3.2954 3.03195 3.19847 2.98748C3.10154 2.943 2.9958 2.91651 2.88745 2.90955C2.86802 2.90955 2.8433 2.90955 2.82269 2.90955C2.66547 2.9098 2.51161 2.95084 2.37926 3.02784C2.24692 3.10484 2.14161 3.21457 2.07576 3.3441C2.00991 3.47362 1.98628 3.61753 2.00765 3.75885C2.02901 3.90016 2.09449 4.03298 2.19634 4.14164Z" fill="#8E8E8F"/>
<path d="M17.1735 5.66651C17.1277 5.75569 17.1018 5.8522 17.0972 5.95049C17.0926 6.04879 17.1094 6.14694 17.1467 6.23932C17.184 6.33171 17.241 6.4165 17.3145 6.48885C17.388 6.5612 17.4765 6.61968 17.575 6.66094C17.7739 6.74327 18.0006 6.75121 18.206 6.68305C18.4113 6.61488 18.5788 6.47608 18.6722 6.2967L20.3205 3.06667C20.367 2.97776 20.3935 2.88137 20.3986 2.78309C20.4036 2.6848 20.3871 2.58659 20.35 2.49415C20.2945 2.35442 20.1943 2.23287 20.0624 2.14497C19.9304 2.05708 19.7726 2.00684 19.609 2.00065C19.4454 1.99446 19.2835 2.03261 19.144 2.11023C19.0044 2.18785 18.8934 2.30142 18.8253 2.43647L17.1735 5.66651Z" fill="#8E8E8F"/>
<path d="M23.9016 5.982C23.7595 6.13359 23.6895 6.33011 23.707 6.52844C23.7244 6.72678 23.8278 6.91074 23.9946 7.03999C24.1615 7.16819 24.3776 7.23127 24.5956 7.21546C24.8137 7.19966 25.016 7.10624 25.1584 6.95561L27.8009 4.14161C27.8712 4.06677 27.9244 3.98011 27.9577 3.88657C27.991 3.79304 28.0036 3.69447 27.9949 3.5965C27.9861 3.49853 27.9562 3.40309 27.9067 3.31564C27.8573 3.22818 27.7893 3.15043 27.7067 3.08683C27.5588 2.97092 27.37 2.90689 27.1746 2.90631C27.1528 2.90631 27.1304 2.90631 27.1086 2.90631C27.0002 2.9141 26.8946 2.94128 26.7978 2.98628C26.701 3.03129 26.615 3.09323 26.5447 3.16854L23.9016 5.982Z" fill="#8E8E8F"/>
</svg>
