<svg width="30" height="30" viewBox="0 0 30 30" fill="none" xmlns="http://www.w3.org/2000/svg">
<path d="M14.9999 16.395C13.7568 16.395 12.5416 16.0315 11.508 15.3505C10.4744 14.6695 9.66876 13.7016 9.19304 12.5692C8.71732 11.4367 8.59285 10.1906 8.83537 8.98843C9.07789 7.78623 9.6765 6.68194 10.5555 5.81521C11.4345 4.94847 12.5544 4.35822 13.7737 4.11909C14.9929 3.87995 16.2566 4.00269 17.4051 4.47176C18.5536 4.94083 19.5352 5.73518 20.2259 6.75435C20.9165 7.77353 21.2851 8.97175 21.2851 10.1975C21.2832 11.8406 20.6203 13.4158 19.4421 14.5777C18.2638 15.7395 16.6662 16.3931 14.9999 16.395ZM14.9999 7.09823C14.3783 7.09823 13.7707 7.27997 13.2539 7.62046C12.7371 7.96096 12.3343 8.44492 12.0965 9.01114C11.8586 9.57736 11.7964 10.2004 11.9176 10.8015C12.0389 11.4026 12.3382 11.9548 12.7777 12.3881C13.2172 12.8215 13.7772 13.1166 14.3868 13.2362C14.9964 13.3558 15.6283 13.2944 16.2025 13.0598C16.7767 12.8253 17.2675 12.4281 17.6129 11.9186C17.9582 11.409 18.1425 10.8099 18.1425 10.197C18.1415 9.37548 17.8101 8.58792 17.2209 8.00708C16.6318 7.42625 15.833 7.09906 14.9999 7.09823Z" fill="#008D8F"/>
<path d="M24.429 27H5.57158C5.15484 27 4.75517 26.8368 4.46049 26.5462C4.16581 26.2557 4.00026 25.8616 4.00026 25.4507V24.4179C3.99021 22.9872 4.26731 21.5687 4.81561 20.2441C5.3639 18.9194 6.17256 17.7148 7.195 16.6996C8.21744 15.6844 9.43347 14.8788 10.773 14.329C12.1126 13.7791 13.5493 13.4961 15.0003 13.4961C16.4513 13.4961 17.8879 13.7791 19.2275 14.329C20.5671 14.8788 21.7831 15.6844 22.8055 16.6996C23.828 17.7148 24.6366 18.9194 25.1849 20.2441C25.7332 21.5687 26.0103 22.9872 26.0003 24.4179V25.4507C26.0003 25.8616 25.8347 26.2557 25.54 26.5462C25.2454 26.8368 24.8457 27 24.429 27ZM7.16032 23.9013H22.8402C22.7065 21.9408 21.8225 20.1036 20.3669 18.7616C18.9113 17.4196 16.993 16.673 15.0003 16.673C13.0075 16.673 11.0892 17.4196 9.63364 18.7616C8.17807 20.1036 7.29398 21.9408 7.16032 23.9013Z" fill="#008D8F"/>
</svg>
