<svg xmlns="http://www.w3.org/2000/svg" xmlns:xlink="http://www.w3.org/1999/xlink" width="122.917" height="68.387" viewBox="0 0 122.917 68.387">
  <defs>
    <clipPath id="clip-path">
      <rect id="사각형_1054" data-name="사각형 1054" width="122.917" height="68.387" fill="none"/>
    </clipPath>
  </defs>
  <g id="그룹_54" data-name="그룹 54" transform="translate(0 0)">
    <g id="그룹_1400" data-name="그룹 1400" transform="translate(0 0)" clip-path="url(#clip-path)">
      <path id="패스_9331" data-name="패스 9331" d="M4.839,14.986V12.473h3.7v2.513h4.945v2.38H10.9a9.018,9.018,0,0,1,1.931,5.686c-.026,4.469-2.539,7.8-6.134,7.8-3.7.026-6.162-3.331-6.162-7.8a8.862,8.862,0,0,1,1.9-5.686H0v-2.38Zm1.852,2.433c-1.456,0-2.618,2.221-2.592,5.633-.026,3.253,1.11,5.42,2.565,5.42,1.482,0,2.592-2.115,2.592-5.42,0-3.571-1.058-5.633-2.565-5.633m12.746,4.707v14.28H15.868V12.473h3.569v7.272h3.437v2.38Z" transform="translate(0 3.072)" fill="#fff"/>
      <path id="패스_9332" data-name="패스 9332" d="M24.363,27.149h6a8.193,8.193,0,0,0,4.337-.714V12.473h3.569v7.272h3.437v2.379H38.271V36.406H34.7v-7.59a11.414,11.414,0,0,1-4.417.714H22.379a3.047,3.047,0,0,1-2.751-3.279V13.53H23.2V26.171c0,.608.4.978,1.164.978" transform="translate(4.834 3.072)" fill="#fff"/>
      <path id="패스_9333" data-name="패스 9333" d="M47.583,16.439c2.625,0,4.851,2.714,4.851,6.984,0,4.225-2.145,7.005-4.851,7.005-2.827,0-4.872-2.847-4.872-7.005,0-4.2,2.145-6.984,4.872-6.984m0,2c-1.123,0-2.165,1.69-2.165,4.981,0,3.136,1.042,5,2.144,5,1.163,0,2.165-1.78,2.165-5,0-3.314-.982-4.981-2.144-4.981m9.761,5.537V35.99H54.638V15.862h2.706v6.116H59.95v2Z" transform="translate(10.519 3.907)" fill="#fff"/>
      <path id="패스_9334" data-name="패스 9334" d="M61.76,16.44c2.626,0,4.851,2.713,4.851,6.983,0,4.226-2.144,7.005-4.851,7.005-2.827,0-4.871-2.847-4.871-7.005,0-4.2,2.145-6.983,4.871-6.983m0,2c-1.122,0-2.165,1.69-2.165,4.981,0,3.137,1.043,5,2.145,5,1.163,0,2.165-1.778,2.165-5,0-3.314-.982-4.981-2.145-4.981M71.722,35.99H69.017V15.862h2.706Z" transform="translate(14.011 3.907)" fill="#fff"/>
      <path id="패스_9335" data-name="패스 9335" d="M80.269,19.687H77.182c.161,2.914,1.443,5,3.488,5.494v2c-2.385-.133-4.53-1.913-4.952-3.314a6.231,6.231,0,0,1-4.871,3.314v-2c2-.49,3.308-2.58,3.488-5.494H71.148v-2h3.208v-2h2.805v2h3.107ZM85.28,36.257H82.574V30.474h-9.12v-2H85.28Zm0-14.012v5.338H82.574V15.906H85.28v4.337h2.606v2Z" transform="translate(17.449 3.863)" fill="#fff"/>
      <path id="패스_9336" data-name="패스 9336" d="M88.382,17.7V15.612h2.807V17.7h3.748v2H93.113a5.434,5.434,0,0,1,1.122,3.4c0,3.314-2.284,5.272-4.449,5.272-2.286,0-4.49-1.958-4.47-5.272a5.387,5.387,0,0,1,1.123-3.4H84.714v-2ZM91.129,34.05h8.318v2h-9.9c-1.1,0-1.924-1.245-1.924-2.668v-4h2.706v3.78a.8.8,0,0,0,.8.89m-1.344-14.3c-1.083,0-1.764,1.423-1.764,3.358,0,1.8.641,3.27,1.744,3.27,1.062,0,1.764-1.513,1.764-3.27,0-1.957-.742-3.358-1.744-3.358m9.661,3.4v7.784H96.741V15.924h2.706v5.227h2.606v2Z" transform="translate(20.865 3.845)" fill="#fff"/>
      <path id="패스_9337" data-name="패스 9337" d="M32.5,46.772a13.53,13.53,0,0,0,.435-3.807v-1.64H23.1V39.433h12.64V42.9a13.435,13.435,0,0,1-.518,3.87h2.57v1.892H21.005V46.772Zm3.212,3.764v7.718H24.983c-1.036,0-1.906-1.178-1.906-2.607V50.536Zm-9.842,1.893V55.6c0,.547.332.758.808.758H32.92V52.429Z" transform="translate(5.173 9.712)" fill="#fff"/>
      <path id="패스_9338" data-name="패스 9338" d="M44.877,38.672a5.138,5.138,0,0,1,5.18,5.047,4.978,4.978,0,0,1-1.1,3.154h4.29v1.893H49.787v3.786h-.041a4.4,4.4,0,0,1,.332,1.66c0,2.881-2.652,4.649-5.222,4.649-2.8,0-5.242-1.808-5.242-4.649a4.373,4.373,0,0,1,.332-1.66h-.021V48.767H36.463V46.874h4.331a4.978,4.978,0,0,1-1.1-3.154,5.151,5.151,0,0,1,5.181-5.047m-.021,12.745a2.6,2.6,0,0,0-2.445,2.8,2.453,2.453,0,1,0,4.869,0,2.647,2.647,0,0,0-2.424-2.8m.021-10.851c-1.388,0-2.4,1.514-2.383,3.154-.021,1.64,1.016,3.154,2.383,3.154,1.326,0,2.362-1.472,2.383-3.154-.021-1.6-1.1-3.154-2.383-3.154m2.093,8.2H42.742v1.157a5.921,5.921,0,0,1,2.114-.4,5.584,5.584,0,0,1,2.114.42Z" transform="translate(8.981 9.525)" fill="#fff"/>
      <path id="패스_9339" data-name="패스 9339" d="M63.028,53.293a13.931,13.931,0,0,0,.829-5.51V41.831H54.015V39.939h12.64v7.823a13.659,13.659,0,0,1-.933,5.531H68.7v1.893H51.921V53.293h3.668v-7.15H58.3v7.15h1.534v-7.15h2.714v7.15Z" transform="translate(12.788 9.837)" fill="#fff"/>
      <path id="패스_9340" data-name="패스 9340" d="M75.792,38.757a5.054,5.054,0,0,1,5.077,5.195A5.39,5.39,0,0,1,79.5,47.568h4.662v1.893H80.5v1.914h1.6v7.045h-2.8V53.268H69.453V51.376h1.6V49.461H67.38V47.568h4.682a5.357,5.357,0,0,1-1.388-3.617,5.087,5.087,0,0,1,5.119-5.195m0,1.893c-1.346,0-2.321,1.535-2.321,3.3,0,1.934.995,3.323,2.3,3.323s2.3-1.472,2.3-3.323c0-1.808-.953-3.3-2.279-3.3m1.886,8.811H73.866v1.914h3.812Z" transform="translate(16.595 9.546)" fill="#fff"/>
      <path id="패스_9341" data-name="패스 9341" d="M16.351,35.46l1.861-.932a.738.738,0,0,1,1.056.8l-.391,2.044a.738.738,0,0,0,.2.658l1.462,1.481a.737.737,0,0,1-.432,1.25l-2.065.26a.734.734,0,0,0-.563.393L16.52,43.26a.738.738,0,0,1-1.324-.025l-.885-1.884a.736.736,0,0,0-.547-.414L11.71,40.6a.738.738,0,0,1-.385-1.266l1.518-1.425a.735.735,0,0,0,.226-.648L12.756,35.2a.738.738,0,0,1,1.086-.758l1.823,1a.739.739,0,0,0,.687.014" transform="translate(2.732 8.46)" fill="#419496"/>
      <path id="패스_9342" data-name="패스 9342" d="M24.832,3.426,26.75,4.441a.769.769,0,0,1-.039,1.378l-1.972.906a.77.77,0,0,0-.437.567L23.931,9.43a.769.769,0,0,1-1.324.389l-1.471-1.6a.773.773,0,0,0-.674-.241l-2.147.307a.769.769,0,0,1-.78-1.138L18.6,5.261a.768.768,0,0,0,.02-.717L17.663,2.6A.769.769,0,0,1,18.5,1.5l2.127.427a.768.768,0,0,0,.687-.2L22.876.218a.769.769,0,0,1,1.3.462l.251,2.155a.77.77,0,0,0,.405.591" transform="translate(4.294 0)" fill="#fdec57"/>
      <path id="패스_9343" data-name="패스 9343" d="M72.351,7.923l1.674-.02a.594.594,0,0,1,.484.95l-1,1.342a.6.6,0,0,0-.087.546l.536,1.588a.593.593,0,0,1-.753.753l-1.588-.54a.591.591,0,0,0-.546.086l-1.342,1a.6.6,0,0,1-.951-.485l.024-1.675a.6.6,0,0,0-.249-.494l-1.367-.968a.594.594,0,0,1,.167-1.053l1.6-.495a.6.6,0,0,0,.393-.391l.5-1.6A.594.594,0,0,1,70.892,6.3l.966,1.368a.6.6,0,0,0,.494.252" transform="translate(16.485 1.49)" fill="#d82f4a"/>
    </g>
  </g>
</svg>
