<svg xmlns="http://www.w3.org/2000/svg" xmlns:xlink="http://www.w3.org/1999/xlink" width="40.554" height="56" viewBox="0 0 40.554 56">
  <defs>
    <clipPath id="clip-path">
      <rect id="사각형_1052" data-name="사각형 1052" width="40.554" height="56" fill="#fff"/>
    </clipPath>
  </defs>
  <g id="그룹_2015" data-name="그룹 2015" transform="translate(0 0)">
    <g id="그룹_1396" data-name="그룹 1396" transform="translate(0 0)" clip-path="url(#clip-path)">
      <path id="패스_9327" data-name="패스 9327" d="M39.345,19.522h-6.9V12.169a12.169,12.169,0,1,0-24.338,0v7.353h-6.9A1.206,1.206,0,0,0,0,20.73V42.515A13.5,13.5,0,0,0,13.485,56H27.068A13.5,13.5,0,0,0,40.552,42.515V20.73a1.206,1.206,0,0,0-1.207-1.207M35.506,24.57V42.515a8.448,8.448,0,0,1-8.439,8.437H13.485a8.448,8.448,0,0,1-8.439-8.437V24.57ZM27.4,19.522H13.154V12.169a7.122,7.122,0,0,1,14.243,0Z" transform="translate(0 0)" fill="#fff"/>
      <path id="패스_9328" data-name="패스 9328" d="M15.287,36.021v3.834a1.206,1.206,0,0,0,1.207,1.207h2.633a1.206,1.206,0,0,0,1.207-1.207V36.022a5.915,5.915,0,1,0-5.047,0m2.524-4.46a.867.867,0,1,1,.867-.867.869.869,0,0,1-.867.867" transform="translate(2.466 5.136)" fill="#fff"/>
    </g>
  </g>
</svg>
